<?xml version="1.0" standalone="no"?>
<!DOCTYPE svg PUBLIC "-//W3C//DTD SVG 20010904//EN"
 "http://www.w3.org/TR/2001/REC-SVG-20010904/DTD/svg10.dtd">
<svg version="1.0" xmlns="http://www.w3.org/2000/svg"
 width="644.000000pt" height="644.000000pt" viewBox="0 0 644.000000 644.000000"
 preserveAspectRatio="xMidYMid meet">
<metadata>
Created by potrace 1.11, written by Peter Selinger 2001-2013
</metadata>
<g transform="translate(0.000000,644.000000) scale(0.100000,-0.100000)"
fill="#000000" stroke="none">
<path d="M1550 5974 c-124 -18 -247 -36 -275 -39 -27 -3 -57 -8 -65 -10 -8 -2
-40 -7 -70 -10 -30 -3 -62 -8 -70 -10 -8 -2 -39 -7 -69 -10 -30 -4 -62 -8 -71
-10 -9 -2 -41 -6 -71 -10 -30 -3 -68 -10 -86 -15 -17 -4 -33 -6 -36 -4 -2 2
-41 -3 -86 -11 -135 -24 -204 -79 -232 -186 -11 -39 -10 -67 5 -170 10 -68 20
-142 23 -164 9 -78 50 -147 109 -186 l26 -17 -58 -12 c-182 -39 -449 -114
-477 -135 -10 -7 -18 -34 -22 -71 -4 -32 -10 -75 -14 -96 -12 -51 -6 -151 10
-183 9 -17 28 -32 52 -40 22 -7 47 -22 57 -33 21 -23 60 -95 66 -126 15 -63
33 -180 39 -245 3 -41 8 -77 10 -80 1 -4 6 -37 10 -76 4 -38 8 -72 10 -75 2
-3 6 -25 10 -50 4 -25 8 -47 10 -50 2 -3 6 -21 9 -41 10 -64 74 -264 110 -342
139 -305 375 -484 701 -532 146 -21 475 -22 593 -1 9 2 40 7 67 10 76 11 279
65 348 93 72 29 198 93 246 124 l33 22 -7 -44 c-3 -24 -8 -55 -10 -69 -10 -74
-17 -129 -21 -160 -1 -19 -5 -57 -8 -85 -3 -27 -8 -90 -12 -140 -6 -82 -11
-99 -61 -200 -29 -60 -58 -118 -63 -127 -31 -57 -123 -316 -136 -383 -2 -11
-8 -42 -14 -70 -22 -108 -14 -259 17 -318 17 -34 23 -26 -122 -182 -16 -18
-46 -50 -65 -71 -31 -34 -177 -194 -295 -323 -22 -25 -61 -67 -86 -94 l-45
-49 7 -56 c24 -177 145 -321 313 -374 52 -17 79 -19 176 -14 63 3 126 8 140
10 14 3 61 8 104 11 44 3 83 8 88 11 5 3 110 137 175 223 3 5 42 -41 43 -51 0
-4 27 -52 61 -108 67 -111 64 -109 139 -69 19 10 69 34 110 53 41 19 147 68
234 110 l159 77 26 -24 c14 -13 84 -74 154 -135 l128 -112 232 0 232 1 84 79
c55 52 88 77 95 71 6 -5 53 -41 105 -80 l93 -71 153 0 c164 0 221 12 301 63
112 70 194 204 210 342 4 40 3 41 -142 190 -80 83 -228 234 -329 336 l-185
186 37 72 c34 66 38 80 40 164 4 192 -65 429 -217 742 -52 107 -69 154 -74
200 -4 33 -9 83 -12 110 -4 45 -18 152 -30 245 -2 19 -7 46 -10 58 l-5 24 28
-20 c99 -69 378 -168 528 -187 22 -3 56 -7 75 -10 81 -12 202 -19 310 -18 383
2 615 74 793 247 58 57 147 166 147 182 0 3 8 18 18 32 43 62 139 329 156 433
3 19 12 66 20 104 8 39 17 104 20 145 25 290 46 387 97 445 17 19 36 35 41 35
20 0 86 60 98 90 18 43 3 321 -18 342 -7 6 -249 77 -341 99 l-44 11 38 36 c20
20 42 48 47 62 14 36 37 119 44 160 3 19 12 62 20 95 26 112 15 178 -42 252
-42 55 -121 85 -314 119 -14 2 -54 11 -90 19 -110 24 -354 77 -380 81 -14 2
-45 9 -70 14 -25 6 -54 12 -65 14 -29 6 -62 13 -135 30 -36 8 -81 18 -100 21
-19 3 -51 10 -70 15 -48 13 -130 12 -171 -2 -49 -16 -107 -65 -128 -107 -32
-61 -84 -325 -78 -391 10 -111 93 -193 217 -215 19 -3 89 -18 155 -32 66 -14
156 -33 200 -43 l80 -17 -215 -1 c-203 -1 -255 -3 -410 -18 -36 -3 -82 -7
-102 -9 -20 -2 -56 -6 -80 -10 -24 -4 -56 -9 -73 -11 -16 -2 -68 -12 -115 -20
-47 -9 -96 -18 -110 -20 -113 -21 -272 -69 -420 -128 -64 -25 -131 -48 -150
-51 -95 -18 -166 -23 -285 -20 -145 4 -279 29 -480 91 -264 81 -393 112 -562
138 -165 25 -223 32 -348 42 -146 11 -174 12 -300 14 -125 3 -123 4 30 24 22
3 51 8 65 11 13 2 40 7 60 9 308 43 339 55 397 154 33 56 38 129 17 247 -8 44
-16 100 -19 124 -11 92 -27 127 -80 183 -43 43 -109 68 -179 67 -28 -1 -152
-16 -276 -35z m100 -878 c19 -3 58 -8 85 -11 154 -17 367 -73 505 -131 131
-55 217 -110 296 -190 116 -117 155 -247 131 -440 -11 -87 -71 -280 -129 -414
-24 -54 -32 -74 -49 -120 -31 -86 -95 -211 -144 -286 -142 -213 -377 -352
-699 -411 -97 -18 -395 -25 -471 -10 -165 31 -239 55 -340 112 -205 113 -318
328 -380 720 -9 55 -18 110 -20 123 -2 13 -7 53 -10 90 -4 37 -8 78 -11 92 -5
33 -5 265 1 310 17 130 58 221 135 300 106 108 244 184 421 230 84 21 103 25
219 39 70 8 403 6 460 -3z m3495 0 c22 -4 56 -9 75 -11 314 -46 544 -133 674
-254 78 -73 117 -151 134 -267 14 -95 5 -462 -13 -516 -2 -7 -6 -36 -9 -63
-34 -315 -139 -582 -282 -715 -234 -219 -669 -275 -1076 -140 -162 54 -332
155 -424 252 -63 66 -162 216 -221 333 -61 123 -132 317 -152 415 -6 30 -14
66 -17 80 -55 261 -31 412 92 571 129 168 350 276 644 314 95 12 495 13 575 1z
m-1830 -601 c120 -56 280 -290 392 -575 92 -232 197 -612 219 -790 2 -19 6
-44 9 -56 6 -26 13 -73 29 -204 7 -49 14 -133 21 -221 3 -40 13 -72 35 -110
160 -270 273 -599 265 -765 -8 -159 -173 -276 -405 -289 -65 -3 -97 -10 -123
-25 -100 -59 -214 -75 -547 -75 -261 0 -339 7 -417 40 -19 8 -65 14 -106 14
-155 -1 -318 54 -400 134 -73 71 -81 90 -81 192 0 154 74 383 209 649 60 118
66 136 70 205 6 101 15 208 20 251 12 103 17 143 31 230 20 133 24 154 40 229
8 36 17 78 20 94 3 15 23 92 44 170 94 350 229 642 375 815 27 32 104 87 140
100 41 15 111 9 160 -13z"/>
</g>
</svg>
