<?xml version="1.0" encoding="utf-8"?>
<!-- Generator: Adobe Illustrator 17.0.0, SVG Export Plug-In . SVG Version: 6.00 Build 0)  -->
<!DOCTYPE svg PUBLIC "-//W3C//DTD SVG 1.1//EN" "http://www.w3.org/Graphics/SVG/1.1/DTD/svg11.dtd">
<svg version="1.1" id="Layer_1" xmlns="http://www.w3.org/2000/svg" xmlns:xlink="http://www.w3.org/1999/xlink" x="0px" y="0px"
	 width="61.756px" height="78.145px" viewBox="0 0 61.756 78.145" enable-background="new 0 0 61.756 78.145" xml:space="preserve">
<g>
	<g>
		<path d="M47.305,73.225c-5.572,0-10.102-4.531-10.102-10.1c0-5.572,4.53-10.102,10.102-10.102c4.135,0,7.684,2.5,9.251,6.068
			h5.201c-1.763-6.334-7.561-10.988-14.452-10.988c-8.297,0-15.022,6.725-15.022,15.021c0,8.295,6.725,15.02,15.022,15.02
			c6.891,0,12.688-4.656,14.452-10.99h-5.201C54.988,70.725,51.434,73.225,47.305,73.225z"/>
	</g>
	<path d="M4.876,17.561h5.818c5.524,0,9.182-3.703,9.182-8.777C19.876,3.744,16.218,0,10.694,0H0v28.824h4.876V17.561z M4.876,4.309
		h5.082c3.094,0,4.963,1.748,4.963,4.51c0,2.727-1.87,4.432-4.963,4.432H4.876V4.309z"/>
	<path d="M38.137,28.822l2.682-7.238h12.197l2.72,7.238h5.327L49.844,0.002h-5.648l-11.219,28.82H38.137z M46.916,5.281
		l4.389,11.787h-8.78L46.916,5.281z"/>
</g>
</svg>
