<?xml version="1.0" encoding="utf-8"?>
<!-- Generator: Adobe Illustrator 17.0.0, SVG Export Plug-In . SVG Version: 6.00 Build 0)  -->
<!DOCTYPE svg PUBLIC "-//W3C//DTD SVG 1.1//EN" "http://www.w3.org/Graphics/SVG/1.1/DTD/svg11.dtd">
<svg version="1.1" id="Layer_1" xmlns="http://www.w3.org/2000/svg" xmlns:xlink="http://www.w3.org/1999/xlink" x="0px" y="0px"
	 width="553.004px" height="52.222px" viewBox="0 0 553.004 52.222" enable-background="new 0 0 553.004 52.222"
	 xml:space="preserve">
<g>
	<path fill="#010202" d="M5.237,16.527h3.842c3.65,0,6.066-2.443,6.066-5.802c0-3.325-2.416-5.801-6.066-5.801H2.018v19.047h3.219
		V16.527z M5.237,7.775h3.356c2.042,0,3.275,1.153,3.275,2.979c0,1.798-1.233,2.929-3.275,2.929H5.237V7.775z"/>
	<path fill="#010202" d="M18.548,23.969l1.773-4.783h8.054l1.799,4.783h3.518L26.283,4.925h-3.732l-7.408,19.044H18.548z
		 M24.349,8.42l2.899,7.786h-5.796L24.349,8.42z"/>
	<polygon fill="#010202" points="39.272,23.967 42.495,23.967 42.495,7.962 48.697,7.962 48.697,4.925 33.095,4.925 33.095,7.964 
		39.272,7.962 	"/>
	<path fill="#010202" d="M55.106,16.45h2.362l4.001,7.519h3.649l-4.292-7.843c2.655-0.646,4.292-2.713,4.292-5.424
		c0-3.224-2.282-5.777-5.959-5.777h-7.302v19.044h3.249V16.45z M55.106,7.773h3.465c1.985,0,3.273,1.156,3.273,2.929
		c0,1.745-1.288,2.903-3.273,2.903h-3.465V7.773z"/>
	<polygon fill="#010202" points="94.319,9.545 103.715,23.967 107.071,23.967 107.071,4.925 103.848,4.925 103.848,18.436 
		95.206,4.925 91.096,4.925 91.096,23.967 94.319,23.967 	"/>
	<path fill="#010202" d="M121.292,4.925h-3.727l-7.415,19.042h3.411l1.773-4.782h8.053l1.802,4.782h3.517L121.292,4.925z
		 M116.461,16.204l2.898-7.787l2.901,7.787H116.461z"/>
	<polygon fill="#010202" points="134.288,23.967 137.509,23.967 137.509,7.962 143.71,7.962 143.71,4.925 128.106,4.925 
		128.106,7.962 134.288,7.962 	"/>
	<path fill="#010202" d="M194.528,14.487c0-6.123-4.082-9.56-9.262-9.56h-6.737v19.038h6.71
		C190.393,23.965,194.528,20.58,194.528,14.487 M181.747,21.01V7.88h3.411c3.301,0,6.012,2.148,6.012,6.607
		c0,4.402-2.735,6.523-6.035,6.523H181.747z"/>
	<polygon fill="#010202" points="210.201,7.937 210.201,4.927 198.44,4.927 198.44,23.965 210.201,23.965 210.201,20.956 
		201.662,20.956 201.662,15.911 209.396,15.911 209.396,12.982 201.662,12.982 201.662,7.937 	"/>
	<path fill="#010202" d="M223.19,23.963l1.771-4.777h8.053l1.801,4.777h3.518l-7.412-19.036h-3.731l-7.41,19.036H223.19z
		 M228.988,8.419l2.898,7.785h-5.796L228.988,8.419z"/>
	<path fill="#010202" d="M244.659,16.447h2.361l4.004,7.516h3.648l-4.294-7.841c2.66-0.644,4.294-2.707,4.294-5.423
		c0-3.22-2.283-5.772-5.956-5.772h-7.308v19.036h3.251V16.447z M244.659,7.773h3.463c1.986,0,3.277,1.153,3.277,2.926
		c0,1.749-1.291,2.9-3.277,2.9h-3.463V7.773z"/>
	<polygon fill="#010202" points="266.107,23.963 266.107,7.961 272.31,7.961 272.31,4.927 256.711,4.927 256.711,7.961 
		262.884,7.961 262.884,23.963 	"/>
	<polygon fill="#010202" points="287.231,20.955 278.693,20.955 278.693,15.908 286.425,15.908 286.425,12.981 278.693,12.981 
		278.693,7.936 287.231,7.936 287.231,4.927 275.469,4.927 275.469,23.963 287.231,23.963 	"/>
	<path fill="#010202" d="M7.411,32.563L0,51.6h3.411l1.773-4.78h8.055l1.8,4.78h3.515l-7.407-19.037H7.411z M6.312,43.838
		l2.899-7.785l2.899,7.785H6.312z"/>
	<path fill="#010202" d="M23.329,47.383c-1.209,0-2.176,0.994-2.176,2.201c0,1.208,0.967,2.174,2.176,2.174
		c1.207,0,2.201-0.966,2.201-2.174C25.53,48.377,24.536,47.383,23.329,47.383"/>
	<path fill="#010202" d="M51.346,47.381c-1.207,0-2.175,0.996-2.175,2.201c0,1.21,0.968,2.174,2.175,2.174
		c1.209,0,2.2-0.964,2.2-2.174C53.546,48.377,52.555,47.381,51.346,47.381"/>
	<path fill="#010202" d="M84.299,14.445c0,2.896-1.867,5.346-4.455,6.265v3.401c4.41-1.012,7.701-4.949,7.701-9.666
		c0-4.715-3.291-8.654-7.701-9.661v3.4C82.432,9.099,84.299,11.548,84.299,14.445"/>
	<path fill="#010202" d="M75.407,24.108V20.71c-2.585-0.922-4.451-3.369-4.451-6.265c0-2.898,1.866-5.34,4.451-6.263V4.784
		c-4.408,1.007-7.7,4.948-7.7,9.661S70.999,23.099,75.407,24.108"/>
	<path fill="#010202" d="M157.264,4.784v3.4c2.585,0.915,4.453,3.364,4.453,6.261s-1.868,5.346-4.453,6.267v3.395
		c4.413-1.008,7.703-4.948,7.703-9.662C164.967,9.73,161.677,5.79,157.264,4.784"/>
	<path fill="#010202" d="M148.376,14.445c0-2.897,1.866-5.346,4.453-6.261v-3.4c-4.412,1.007-7.705,4.946-7.705,9.661
		c0,4.717,3.293,8.652,7.705,9.663V20.71C150.242,19.791,148.376,17.341,148.376,14.445"/>
	<path fill="#010202" d="M44.106,44.965c-1.033,2.353-3.377,4.008-6.107,4.008c-2.731,0-5.081-1.653-6.111-4.008h-3.439
		c1.163,4.187,4.995,7.257,9.55,7.257c4.548,0,8.38-3.071,9.546-7.257H44.106z"/>
	<path fill="#010202" d="M37.997,35.629c2.733,0,5.077,1.652,6.11,4.01h3.438c-1.168-4.184-4.996-7.26-9.548-7.26
		c-4.555,0-8.386,3.076-9.55,7.262h3.445C32.92,37.281,35.266,35.629,37.997,35.629"/>
	<polygon fill="#010202" points="354.709,18.172 346.063,4.673 341.957,4.673 341.957,23.708 345.176,23.708 345.176,9.289 
		354.574,23.708 357.933,23.708 357.933,4.673 354.709,4.673 	"/>
	<polygon fill="#010202" points="361.093,7.702 367.27,7.702 367.27,23.708 370.49,23.708 370.49,7.702 376.694,7.702 
		376.694,4.673 361.093,4.673 	"/>
	<polygon fill="#010202" points="379.853,23.708 391.614,23.708 391.614,20.696 383.078,20.696 383.078,15.652 390.809,15.652 
		390.809,12.724 383.078,12.724 383.078,7.679 391.614,7.679 391.614,4.668 379.853,4.668 	"/>
	<polygon fill="#010202" points="406.482,19.195 400.308,4.668 396.009,4.668 396.009,23.708 399.153,23.708 399.153,9.744 
		405.037,23.708 407.826,23.708 413.757,9.688 413.757,23.708 416.956,23.708 416.956,4.668 412.58,4.668 	"/>
	<path fill="#010202" d="M429.106,4.67h-7.063v19.038h3.223v-7.44h3.84c3.651,0,6.071-2.443,6.071-5.795
		C435.177,7.141,432.757,4.67,429.106,4.67 M428.626,13.423h-3.36v-5.91h3.36c2.036,0,3.271,1.158,3.271,2.984
		C431.897,12.295,430.662,13.423,428.626,13.423"/>
	<path fill="#010202" d="M474.147,10.443c0-3.221-2.283-5.773-5.958-5.773h-7.307v19.038h3.246v-7.519h2.366l4.001,7.519h3.652
		l-4.295-7.842C472.509,15.221,474.147,13.153,474.147,10.443 M467.594,13.342h-3.466V7.513h3.466c1.988,0,3.274,1.158,3.274,2.93
		C470.868,12.188,469.582,13.342,467.594,13.342"/>
	<polygon fill="#010202" points="490.41,0 486.409,0 483.674,3.33 486.599,3.33 	"/>
	<path fill="#010202" d="M483.429,4.67l-7.407,19.038h3.408l1.77-4.781h8.054l1.804,4.781h3.513L487.163,4.67H483.429z
		 M482.332,15.945l2.899-7.787l2.898,7.787H482.332z"/>
	<polygon fill="#010202" points="510.405,18.172 501.759,4.673 497.654,4.673 497.654,23.708 500.873,23.708 500.873,9.289 
		510.272,23.708 513.63,23.708 513.63,4.673 510.405,4.673 	"/>
	<polygon fill="#010202" points="518.721,23.708 530.482,23.708 530.482,20.696 521.942,20.696 521.942,15.652 529.673,15.652 
		529.673,12.724 521.942,12.724 521.942,7.679 530.482,7.679 530.482,4.668 518.721,4.668 	"/>
	<path fill="#010202" d="M306.413,20.858c-2.73,0-5.073-1.65-6.106-4.004h-3.443c1.164,4.182,4.993,7.257,9.549,7.257
		c4.551,0,8.382-3.075,9.549-7.257h-3.443C311.487,19.208,309.142,20.858,306.413,20.858"/>
	<path fill="#010202" d="M306.413,7.52c2.729,0,5.074,1.653,6.106,4.009h3.445c-1.169-4.185-4.996-7.26-9.551-7.26
		c-4.556,0-8.387,3.075-9.549,7.26h3.443C301.332,9.173,303.683,7.52,306.413,7.52"/>
	<path fill="#010202" d="M335.527,14.187c0,2.897-1.865,5.347-4.453,6.263v3.403c4.411-1.014,7.705-4.949,7.705-9.666
		c0-4.717-3.294-8.653-7.705-9.658v3.394C333.662,8.843,335.527,11.291,335.527,14.187"/>
	<path fill="#010202" d="M326.636,20.452c-2.585-0.922-4.451-3.368-4.451-6.263c0-2.899,1.866-5.34,4.451-6.261v-3.4
		c-4.408,1.01-7.7,4.946-7.7,9.661c0,4.712,3.292,8.65,7.7,9.665V20.452z"/>
	<path fill="#010202" d="M440.833,14.187c0-2.896,1.869-5.339,4.453-6.264V4.529c-4.412,1.005-7.703,4.944-7.703,9.658
		c0,4.713,3.291,8.652,7.703,9.666V20.45C442.702,19.534,440.833,17.084,440.833,14.187"/>
	<path fill="#010202" d="M449.724,4.528v3.396c2.586,0.923,4.453,3.368,4.453,6.262c0,2.898-1.867,5.347-4.453,6.263v3.403
		c4.412-1.011,7.703-4.953,7.703-9.666C457.427,9.474,454.136,5.533,449.724,4.528"/>
	<path fill="#010202" d="M536.408,14.187c0-2.896,1.87-5.339,4.455-6.264V4.529c-4.41,1.005-7.7,4.944-7.7,9.658
		c0,4.713,3.29,8.652,7.7,9.666V20.45C538.278,19.534,536.408,17.084,536.408,14.187"/>
	<path fill="#010202" d="M553.004,14.187c0-4.714-3.293-8.653-7.702-9.658v3.394c2.585,0.925,4.452,3.368,4.452,6.264
		c0,2.897-1.867,5.347-4.452,6.263v3.403C549.711,22.839,553.004,18.9,553.004,14.187"/>
</g>
</svg>
